<?xml version="1.0" encoding="UTF-8"?>
<svg version="1.1" xmlns="http://www.w3.org/2000/svg" width="235" height="365">
<path d="M0 0 C9.546755 5.18765879 16.97843694 14.063141 24.61108398 21.66821289 C25.8487058 22.89791804 27.08650367 24.12744604 28.32446289 25.35681152 C32.36455208 29.37086991 36.39936519 33.39020909 40.43359375 37.41015625 C41.8301192 38.80131495 43.22665002 40.19246825 44.62318611 41.58361626 C50.43580777 47.37464046 56.24699676 53.16709603 62.05447292 58.96328068 C70.34055906 67.2331418 78.63500486 75.49440818 86.94143242 83.74383932 C92.80274665 89.56631743 98.65431737 95.39847652 104.49888092 101.23776811 C107.97996379 104.71521744 111.46500835 108.18845326 114.96056938 111.65135384 C118.25246115 114.91292202 121.53198205 118.18645998 124.80289459 121.46906281 C125.99609887 122.66248577 127.19348844 123.85174345 128.39563942 125.03615379 C144.35144809 140.76947627 154.33176466 157.84153033 154.5625 180.75 C154.62857546 198.324751 149.79030042 212.93473986 138.2571106 226.4708252 C137.53649576 227.31816436 137.53649576 227.31816436 136.80132306 228.18262148 C131.3836553 234.47603874 125.57065584 240.35078661 119.69873047 246.21679688 C118.48965964 247.43187158 117.28099267 248.64734826 116.07269287 249.8631897 C112.82969629 253.12364722 109.58043835 256.37779057 106.32934332 259.63017082 C104.29301893 261.66792677 102.25812928 263.70710443 100.22372818 265.7467804 C93.11202103 272.87690943 85.99525005 280.00193749 78.87353516 287.12207031 C72.25515397 293.73924657 65.648052 300.36753994 59.04604423 307.00104856 C53.35352002 312.71975606 47.65327871 318.43069345 41.94700921 324.13568544 C38.54904581 327.53314058 35.15421431 330.93358259 31.76714706 334.34190369 C28.58627579 337.54219636 25.39586464 340.73266607 22.19802094 343.91599655 C21.03080335 345.08113106 19.86695118 346.24964896 18.70685959 347.42187881 C9.93690512 356.27758717 2.16019036 363.46772386 -10.875 363.8125 C-12.12410156 363.86148437 -13.37320313 363.91046875 -14.66015625 363.9609375 C-24.22137617 363.36146012 -31.41677142 356.59172276 -37.8203125 350.12890625 C-38.63063934 349.32573471 -39.44096619 348.52256317 -40.27584839 347.6950531 C-41.97771674 346.00092583 -43.67329011 344.30045339 -45.36279297 342.59399414 C-47.91861203 340.01902946 -50.50228166 337.47465747 -53.08984375 334.93164062 C-69.58614253 318.5208791 -80.19520715 302.23925694 -80.375 278.375 C-79.94307775 245.13767748 -58.60247047 227.06122337 -36.66046143 205.21679688 C-34.07710185 202.64380894 -31.49669795 200.06786019 -28.91601562 197.4921875 C-23.8843372 192.4711193 -18.84948112 187.45324916 -13.8125 182.4375 C-15.3509034 178.76318727 -17.5600356 176.47629082 -20.39477539 173.70751953 C-20.85853577 173.25149857 -21.32229614 172.7954776 -21.80010986 172.32563782 C-22.80579133 171.33757458 -23.81366434 170.35173808 -24.82347298 169.36789322 C-26.43243765 167.7985802 -28.03357808 166.22166674 -29.63267517 164.64230347 C-34.17985643 160.15289139 -38.73607595 155.67284464 -43.30834961 151.20898438 C-46.10988611 148.47278619 -48.89834302 145.7237844 -51.67956352 142.96694565 C-52.7307622 141.92979679 -53.78657407 140.89729796 -54.84745979 139.87005997 C-70.49330616 124.71294155 -80.23687215 106.89069623 -81.125 84.6875 C-80.58919508 63.85808355 -72.02997209 45.96447343 -57.31640625 31.41015625 C-56.52403061 30.6139537 -55.73165497 29.81775116 -54.91526794 28.99742126 C-53.25367588 27.33312993 -51.58711308 25.67378736 -49.91577148 24.01928711 C-47.37067177 21.49570837 -44.84775361 18.95135161 -42.32617188 16.40429688 C-40.69919831 14.77996526 -39.07098504 13.15687422 -37.44140625 11.53515625 C-36.69532608 10.78097916 -35.94924591 10.02680206 -35.18055725 9.24977112 C-25.70964882 -0.05472102 -13.12458839 -5.35977955 0 0 Z " fill="#FE9300" transform="translate(80.8125,1.5625)"/>
<path d="M0 0 C3.74918407 1.56579358 6.15499572 3.8894419 9.0246582 6.73413086 C9.51143036 7.21418579 9.99820251 7.69424072 10.49972534 8.18884277 C12.10541404 9.77555899 13.70347751 11.3696897 15.30078125 12.96484375 C16.4215826 14.07921172 17.54253122 15.19343158 18.66362 16.30751038 C21.01492352 18.64683945 23.36205635 20.9902656 25.70678711 23.33618164 C28.68880107 26.31839766 31.68426692 29.28667925 34.68360615 32.25145626 C37.00620004 34.55162154 39.31945304 36.86101505 41.63033104 39.17294502 C42.72933942 40.26961684 43.83153738 41.36310313 44.93715858 42.45310783 C59.64057759 56.96833471 70.16441662 74.20545509 70.375 95.375 C70.22643845 112.24519809 65.23334285 129.88294513 52.9375 142.0390625 C50.92476304 143.90300517 50.92476304 143.90300517 49.74658203 146.23388672 C47.59403754 149.64293467 44.94644629 152.37797681 42.1171875 155.21875 C41.54348419 155.79911011 40.96978088 156.37947021 40.37869263 156.97741699 C39.16590746 158.20029483 37.95042493 159.42050276 36.73242188 160.63818359 C34.89118177 162.48377994 33.06652665 164.34474663 31.2421875 166.20703125 C22.49355884 175.03940594 14.95590994 182.03066769 1.9375 182.375 C0.68839844 182.42398438 -0.56070313 182.47296875 -1.84765625 182.5234375 C-11.40887617 181.92396012 -18.60427142 175.15422276 -25.0078125 168.69140625 C-26.22330276 167.48664894 -26.22330276 167.48664894 -27.46334839 166.2575531 C-29.16521674 164.56342583 -30.86079011 162.86295339 -32.55029297 161.15649414 C-35.10611203 158.58152946 -37.68978166 156.03715747 -40.27734375 153.49414062 C-56.77364253 137.0833791 -67.38270715 120.80175694 -67.5625 96.9375 C-67.33715941 79.59706924 -63.01283806 64.25726744 -50.9362793 51.29394531 C-50.45662311 50.7783115 -49.97696692 50.26267769 -49.48277569 49.73141861 C-44.46477599 44.36814046 -39.28964367 39.1630099 -34.08203125 33.984375 C-33.08862001 32.99283686 -32.09543526 32.00107176 -31.10246277 31.00909424 C-28.53200782 28.44239448 -25.95856175 25.87871571 -23.38439941 23.31573486 C-20.74071864 20.68242186 -18.09999014 18.04615159 -15.45898438 15.41015625 C-10.30881428 10.27059943 -5.15546885 5.13424224 0 0 Z " fill="#00CBCB" transform="translate(68,183)"/>
<path d="M0 0 C3.68690582 1.55173106 6.06882747 3.79779179 8.90112305 6.59472656 C9.37492905 7.06020905 9.84873505 7.52569153 10.3368988 8.00527954 C11.90064974 9.54495963 13.45666188 11.09216737 15.01171875 12.640625 C16.10538352 13.72531062 17.19911946 14.8099245 18.29292297 15.89447021 C20.58891416 18.17396925 22.88047099 20.45782955 25.16967773 22.74414062 C28.07131349 25.6404386 30.98866763 28.52030609 33.9104948 31.39621353 C36.17998827 33.63559232 38.43777909 35.88651082 40.69275856 38.1404953 C41.76130702 39.20489751 42.83388494 40.26527339 43.91089439 41.32111359 C59.60577889 56.73222995 69.14941021 73.91490458 69.375 96.3125 C69.47102095 121.85215206 57.2126256 138.73479548 39.81924915 156.39060688 C35.52872015 160.70849086 31.21979346 165.00753734 26.903332 169.29945588 C24.2945465 171.89557839 21.69157736 174.49752058 19.0879364 177.09880066 C14.17658721 182.00398015 9.2601714 186.90404746 4.34182662 191.80221146 C-1.26572308 197.38726014 -6.86746687 202.97811712 -12.46877611 208.56942332 C-23.97282258 220.0526702 -35.48398965 231.52875089 -47 243 C-47 239.52216668 -46.65953455 239.32161682 -44.375 236.9375 C-31.84650792 222.75819484 -28.0224116 204.73746123 -28.82958984 186.20019531 C-29.97286025 171.43923133 -37.45223986 156.31702789 -48 146 C-46.4819272 142.4252101 -44.38425289 140.14188276 -41.64208984 137.41503906 C-40.74130707 136.51440735 -39.84052429 135.61377563 -38.91244507 134.68585205 C-37.92871592 133.71233519 -36.9448775 132.73892875 -35.9609375 131.765625 C-34.95444872 130.76286839 -33.94840211 129.75966778 -32.94277954 128.75604248 C-30.30037853 126.12126187 -27.65202572 123.49254389 -25.00238037 120.86505127 C-22.29743948 118.18060312 -19.59818179 115.49045378 -16.8984375 112.80078125 C-11.60449826 107.52826382 -6.30425717 102.26213943 -1 97 C-5.87724437 91.1202495 -11.13886878 85.73119183 -16.5546875 80.34765625 C-17.45623566 79.44752304 -18.35778381 78.54738983 -19.28665161 77.61997986 C-21.66198217 75.24927177 -24.03945405 72.88075485 -26.41802979 70.51330566 C-28.85344717 68.08819272 -31.28596912 65.66017915 -33.71875 63.23242188 C-38.47652769 58.48562872 -43.2371538 53.74170719 -48 49 C-43.06002739 43.03881703 -37.71470138 37.58513698 -32.2265625 32.12890625 C-31.3028183 31.206577 -30.3790741 30.28424774 -29.42733765 29.33396912 C-26.99324569 26.90366186 -24.55616403 24.47637504 -22.1184082 22.04974365 C-19.6226689 19.56430636 -17.12982292 17.07597068 -14.63671875 14.58789062 C-9.7606114 9.72244904 -4.88133369 4.86019802 0 0 Z " fill="#FF5839" transform="translate(166,86)"/>
<path d="M0 0 C5.68801042 4.73055855 10.93014909 9.7939046 16.14819336 15.03466797 C17.03679047 15.92311905 17.92538757 16.81157013 18.84091187 17.72694397 C21.25752678 20.14413289 23.67191301 22.56350688 26.08530498 24.98391104 C28.6152501 27.52014124 31.14805995 30.0535074 33.68055725 32.58718872 C38.46703323 37.37676289 43.2509561 42.16887864 48.03394943 46.96193039 C53.48304685 52.42223607 58.93501111 57.8796755 64.38720882 63.33688521 C75.59464808 74.5547546 86.79851168 85.77618817 98 97 C96.11147258 101.09640158 93.36775386 103.95547204 90.21484375 107.12109375 C89.35216637 107.99375633 89.35216637 107.99375633 88.47206116 108.88404846 C87.25330908 110.1129121 86.03184044 111.33908667 84.80786133 112.56274414 C82.95774568 114.41720676 81.1241979 116.28701976 79.29101562 118.15820312 C70.52510896 127.00771788 62.98289537 134.02995394 49.9375 134.375 C48.68839844 134.42398438 47.43929687 134.47296875 46.15234375 134.5234375 C36.59112383 133.92396012 29.39572858 127.15422276 22.9921875 120.69140625 C22.18186066 119.88823471 21.37153381 119.08506317 20.53665161 118.2575531 C18.83478326 116.56342583 17.13920989 114.86295339 15.44970703 113.15649414 C12.89388797 110.58152946 10.31021834 108.03715747 7.72265625 105.49414062 C-8.77364253 89.0833791 -19.38270715 72.80175694 -19.5625 48.9375 C-19.31457466 29.85912545 -13.66228228 13.73325517 0 0 Z " fill="#00CCCC" transform="translate(20,231)"/>
<path d="M0 0 C9.78261689 5.32327738 17.41236116 14.5412101 25.1875 22.375 C26.35523374 23.54776009 27.52320074 24.72028798 28.69140625 25.89257812 C31.52613234 28.73821689 34.35768824 31.58697453 37.1875 34.4375 C32.49263627 40.079588 27.47615462 45.28525699 22.27636719 50.4621582 C21.40088226 51.33778915 20.52539734 52.2134201 19.62338257 53.11558533 C17.24118208 55.4972118 14.85679645 57.87660887 12.47138119 60.25501275 C9.96945075 62.75065442 7.47038782 65.2491643 4.9710083 67.74736023 C0.24402368 72.4712463 -4.48550186 77.19257978 -9.21596408 81.91298312 C-14.59668107 87.28250677 -19.97454599 92.65488306 -25.35217524 98.02749884 C-35.95773415 108.62305324 -46.56651243 119.2153772 -57.17760086 129.80539417 C-58.38980356 131.01552576 -59.60133242 132.22633242 -60.8125 133.4375 C-74.17919344 119.62389584 -81.29374092 101.63823312 -81.02734375 82.3984375 C-79.56830509 62.29023191 -71.65772539 45.59625566 -57.31640625 31.41015625 C-56.52403061 30.6139537 -55.73165497 29.81775116 -54.91526794 28.99742126 C-53.25367588 27.33312993 -51.58711308 25.67378736 -49.91577148 24.01928711 C-47.37067177 21.49570837 -44.84775361 18.95135161 -42.32617188 16.40429688 C-40.69919831 14.77996526 -39.07098504 13.15687422 -37.44140625 11.53515625 C-36.69532608 10.78097916 -35.94924591 10.02680206 -35.18055725 9.24977112 C-25.70964882 -0.05472102 -13.12458839 -5.35977955 0 0 Z " fill="#FF9400" transform="translate(80.8125,1.5625)"/>
<path d="M0 0 C3.61692773 1.52897576 5.9203522 3.67815633 8.67675781 6.44970703 C10.05773651 7.83091232 10.05773651 7.83091232 11.46661377 9.24002075 C12.4622253 10.24584465 13.45772648 11.2517778 14.453125 12.2578125 C15.47830193 13.28672149 16.50392275 14.31518837 17.52996826 15.3432312 C20.22393164 18.04481581 22.91183368 20.75235341 25.59851074 23.46118164 C28.34328304 26.22644489 31.09375472 28.98602633 33.84375 31.74609375 C39.23475573 37.15852274 44.61936964 42.57725438 50 48 C48.55258883 51.31851886 46.74697666 53.50034862 44.19088745 56.04962158 C43.39720764 56.84605072 42.60352783 57.64247986 41.78579712 58.46304321 C40.91401825 59.32763153 40.04223938 60.19221985 39.14404297 61.08300781 C38.22691528 62.00042755 37.3097876 62.91784729 36.36486816 63.86306763 C33.8529964 66.37551297 31.33500797 68.88174606 28.81587744 71.38691044 C26.1830938 74.00718777 23.55597647 76.63313362 20.92825317 79.25848389 C15.95283319 84.22768882 10.97233713 89.19177369 5.98999798 94.1540401 C0.31743327 99.80424663 -5.34945043 105.46013628 -11.01586366 111.11651087 C-22.67093207 122.7506767 -34.33311532 134.37768345 -46 146 C-46 142.52216668 -45.65953455 142.32161682 -43.375 139.9375 C-30.84650792 125.75819484 -27.0224116 107.73746123 -27.82958984 89.20019531 C-28.97286025 74.43923133 -36.45223986 59.31702789 -47 49 C-45.4819272 45.4252101 -43.38425289 43.14188276 -40.64208984 40.41503906 C-39.74130707 39.51440735 -38.84052429 38.61377563 -37.91244507 37.68585205 C-36.92871592 36.71233519 -35.9448775 35.73892875 -34.9609375 34.765625 C-33.95444872 33.76286839 -32.94840211 32.75966778 -31.94277954 31.75604248 C-29.30037853 29.12126187 -26.65202572 26.49254389 -24.00238037 23.86505127 C-21.29743948 21.18060312 -18.59818179 18.49045378 -15.8984375 15.80078125 C-10.60449826 10.52826382 -5.30425717 5.26213943 0 0 Z " fill="#FE583A" transform="translate(165,183)"/>
<path d="M0 0 C3.61692773 1.52897576 5.9203522 3.67815633 8.67675781 6.44970703 C10.05773651 7.83091232 10.05773651 7.83091232 11.46661377 9.24002075 C12.4622253 10.24584465 13.45772648 11.2517778 14.453125 12.2578125 C15.47830193 13.28672149 16.50392275 14.31518837 17.52996826 15.3432312 C20.22393164 18.04481581 22.91183368 20.75235341 25.59851074 23.46118164 C28.34328304 26.22644489 31.09375472 28.98602633 33.84375 31.74609375 C39.23475573 37.15852274 44.61936964 42.57725438 50 48 C45.06002739 53.96118297 39.71470138 59.41486302 34.2265625 64.87109375 C33.3028183 65.793423 32.3790741 66.71575226 31.42733765 67.66603088 C28.99324569 70.09633814 26.55616403 72.52362496 24.1184082 74.95025635 C21.6226689 77.43569364 19.12982292 79.92402932 16.63671875 82.41210938 C11.7606114 87.27755096 6.88133369 92.13980198 2 97 C-1.61692773 95.47102424 -3.9203522 93.32184367 -6.67675781 90.55029297 C-7.59741028 89.62948944 -8.51806274 88.70868591 -9.46661377 87.75997925 C-10.4622253 86.75415535 -11.45772648 85.7482222 -12.453125 84.7421875 C-13.47830193 83.71327851 -14.50392275 82.68481163 -15.52996826 81.6567688 C-18.22393164 78.95518419 -20.91183368 76.24764659 -23.59851074 73.53881836 C-26.34328304 70.77355511 -29.09375472 68.01397367 -31.84375 65.25390625 C-37.23475573 59.84147726 -42.61936964 54.42274562 -48 49 C-43.06002739 43.03881703 -37.71470138 37.58513698 -32.2265625 32.12890625 C-31.3028183 31.206577 -30.3790741 30.28424774 -29.42733765 29.33396912 C-26.99324569 26.90366186 -24.55616403 24.47637504 -22.1184082 22.04974365 C-19.6226689 19.56430636 -17.12982292 17.07597068 -14.63671875 14.58789062 C-9.7606114 9.72244904 -4.88133369 4.86019802 0 0 Z " fill="#FF7708" transform="translate(117,37)"/>
<path d="M0 0 C3.5747899 1.5180728 5.85811724 3.61574711 8.58496094 6.35791016 C9.48559265 7.25869293 10.38622437 8.15947571 11.31414795 9.08755493 C12.28766481 10.07128408 13.26107125 11.0551225 14.234375 12.0390625 C15.23713161 13.04555128 16.24033222 14.05159789 17.24395752 15.05722046 C19.87873813 17.69962147 22.50745611 20.34797428 25.13494873 22.99761963 C27.81939688 25.70256052 30.50954622 28.40181821 33.19921875 31.1015625 C38.47173618 36.39550174 43.73786057 41.69574283 49 47 C44.06002739 52.96118297 38.71470138 58.41486302 33.2265625 63.87109375 C32.3028183 64.793423 31.3790741 65.71575226 30.42733765 66.66603088 C27.99324569 69.09633814 25.55616403 71.52362496 23.1184082 73.95025635 C20.6226689 76.43569364 18.12982292 78.92402932 15.63671875 81.41210938 C10.7606114 86.27755096 5.88133369 91.13980198 1 96 C-4.8797505 91.12275563 -10.26880817 85.86113122 -15.65234375 80.4453125 C-16.55247696 79.54376434 -17.45261017 78.64221619 -18.38002014 77.71334839 C-20.75072823 75.33801783 -23.11924515 72.96054595 -25.48669434 70.58197021 C-27.91180728 68.14655283 -30.33982085 65.71403088 -32.76757812 63.28125 C-37.51437128 58.52347231 -42.25829281 53.7628462 -47 49 C-45.4819272 45.4252101 -43.38425289 43.14188276 -40.64208984 40.41503906 C-39.74130707 39.51440735 -38.84052429 38.61377563 -37.91244507 37.68585205 C-36.92871592 36.71233519 -35.9448775 35.73892875 -34.9609375 34.765625 C-33.95444872 33.76286839 -32.94840211 32.75966778 -31.94277954 31.75604248 C-29.30037853 29.12126187 -26.65202572 26.49254389 -24.00238037 23.86505127 C-21.29743948 21.18060312 -18.59818179 18.49045378 -15.8984375 15.80078125 C-10.60449826 10.52826382 -5.30425717 5.26213943 0 0 Z " fill="#FE7608" transform="translate(117,135)"/>
<path d="M0 0 C9.23188273 4.2281588 14.09973546 15.57286893 17.80859375 24.48046875 C24.05431191 42.93093453 22.56145465 62.4908679 14.61328125 80.06640625 C11.24621899 86.69905766 6.81927949 92.36119837 2 98 C-4.04265914 92.99744121 -9.56098043 87.56822676 -15.08984375 82.0078125 C-16.04368954 81.05209752 -16.99775941 80.09660612 -17.95204163 79.1413269 C-20.44153194 76.64805084 -22.92800224 74.15178475 -25.41381836 71.65484619 C-27.95957994 69.09878491 -30.50823777 66.54561495 -33.05664062 63.9921875 C-38.04057069 58.99758981 -43.02131048 53.99982201 -48 49 C-43.06002739 43.03881703 -37.71470138 37.58513698 -32.2265625 32.12890625 C-31.3028183 31.206577 -30.3790741 30.28424774 -29.42733765 29.33396912 C-26.99324569 26.90366186 -24.55616403 24.47637504 -22.1184082 22.04974365 C-19.6226689 19.56430636 -17.12982292 17.07597068 -14.63671875 14.58789062 C-9.7606114 9.72244904 -4.88133369 4.86019802 0 0 Z " fill="#FF422E" transform="translate(214,134)"/>
<path d="M0 0 C11.61803273 9.45720279 18.78264535 24.21763569 21 39 C22.65919928 58.33327859 18.18264452 76.67414649 6 92 C4.05378814 93.7378906 2.02560094 95.35322755 0 97 C-6.15995217 90.95576636 -12.30640489 84.89822136 -18.4359293 78.82313156 C-21.2823808 76.00280262 -24.13330725 73.18732323 -26.99487305 70.38232422 C-29.75495573 67.67646572 -32.5027354 64.95866509 -35.24232292 62.23206329 C-36.29100262 61.19264069 -37.34408189 60.15763797 -38.40152168 59.1271286 C-39.87917616 57.68563668 -41.34056744 56.22938325 -42.79907227 54.76855469 C-43.63624283 53.94248718 -44.47341339 53.11641968 -45.33595276 52.26531982 C-47 50 -47 50 -47.03356934 47.9942627 C-45.62846256 45.28312187 -43.83370618 43.47539251 -41.66381836 41.32324219 C-40.28249977 39.94226349 -40.28249977 39.94226349 -38.87327576 38.53338623 C-37.86229096 37.53772081 -36.8511431 36.54222093 -35.83984375 35.546875 C-34.80928859 34.52191674 -33.77939506 33.49629286 -32.75013733 32.47003174 C-30.04249408 29.77382983 -27.32596228 27.08675928 -24.60748291 24.40148926 C-21.83381027 21.65853271 -19.06863571 18.90703876 -16.30273438 16.15625 C-10.87677256 10.7624398 -5.44139257 5.37824766 0 0 Z " fill="#00B4AF" transform="translate(117,231)"/>
<path d="M0 0 C5.96118297 4.93997261 11.41486302 10.28529862 16.87109375 15.7734375 C18.25458763 17.1590538 18.25458763 17.1590538 19.66603088 18.57266235 C22.09633814 21.00675431 24.52362496 23.44383597 26.95025635 25.8815918 C29.43569364 28.3773311 31.92402932 30.87017708 34.41210938 33.36328125 C39.27755096 38.2393886 44.13980198 43.11866631 49 48 C44.14293711 53.85359821 38.90818585 59.22184952 33.515625 64.58203125 C32.61882019 65.47742111 31.72201538 66.37281097 30.79803467 67.29533386 C28.43333405 69.65541139 26.06649375 72.01329922 23.69854736 74.37011719 C21.28287673 76.7755075 18.87007708 79.18377393 16.45703125 81.59179688 C12.22567884 85.81334189 7.99214442 90.03268432 3.75665283 94.25007629 C2.50315769 95.49876973 1.25109659 96.74890341 0 98 C-13.36669344 84.18639584 -20.48124092 66.20073312 -20.21484375 46.9609375 C-18.9710794 29.81960333 -13.27013435 11.66163321 0 0 Z " fill="#FFA600" transform="translate(20,37)"/>
<path d="M0 0 C5.96118297 4.93997261 11.41486302 10.28529862 16.87109375 15.7734375 C18.25458763 17.1590538 18.25458763 17.1590538 19.66603088 18.57266235 C22.09633814 21.00675431 24.52362496 23.44383597 26.95025635 25.8815918 C29.43569364 28.3773311 31.92402932 30.87017708 34.41210938 33.36328125 C39.27755096 38.2393886 44.13980198 43.11866631 49 48 C44.06002739 53.96118297 38.71470138 59.41486302 33.2265625 64.87109375 C32.3028183 65.793423 31.3790741 66.71575226 30.42733765 67.66603088 C27.99324569 70.09633814 25.55616403 72.52362496 23.1184082 74.95025635 C20.6226689 77.43569364 18.12982292 79.92402932 15.63671875 82.41210938 C10.7606114 87.27755096 5.88133369 92.13980198 1 97 C-0.12318653 96.06856378 -1.24196207 95.13180705 -2.35888672 94.19287109 C-2.98238007 93.67179779 -3.60587341 93.15072449 -4.2482605 92.61386108 C-13.84016945 83.77692582 -18.70648619 67.81272142 -19.44140625 55.17578125 C-20.04804064 35.90183589 -16.70559595 18.59851682 -3.5625 3.6875 C-2.38788276 2.4460165 -1.20537801 1.21163971 0 0 Z " fill="#39E5E5" transform="translate(20,231)"/>
</svg>
